<svg id="Layer_1" data-name="Layer 1" xmlns="http://www.w3.org/2000/svg" viewBox="0 0 255.12 255.12"><defs><style>.cls-1{fill:#1e2918;}</style></defs><title>favicon</title><path class="cls-1" d="M151.55,55.81H99.09V146h51.36q24.65,0,37.59-11.72t13-32.69q0-20.82-12.88-33.16T151.55,55.81Z" transform="translate(-14.17 -14.17)"/><path class="cls-1" d="M257.29,14.17H26.17a12,12,0,0,0-12,12V257.29a12,12,0,0,0,12,12H257.29a12,12,0,0,0,12-12V26.17A12,12,0,0,0,257.29,14.17ZM200.51,145Q183.08,160.32,150,160.32H99.09V242H82.16V41.49h68.29q31.26,0,49.37,16t18.1,43.93Q217.92,129.62,200.51,145Z" transform="translate(-14.17 -14.17)"/></svg>